#!OML:ASF \\sashay\E\basketball\basketball\Project 1\Capture day 1\Session 1\Subject.ASF
:FULLY-SPECIFIED
:DEGREES
484
root 21.7381 12.6657 -3.00417 -173.144 -5.96353 -173.892
lowerback 48.8427 0.874871 3.1214
upperback 11.614 -2.92243 2.31297
thorax -7.30925 -3.64718 2.50741
lowerneck -6.3431 -4.58927 -10.8537
upperneck -30.4447 2.12985 17.2016
head -8.41311 3.14493 7.62182
rclavicle -7.95139e-016 -1.27222e-014
rhumerus 21.045 -12.1044 -84.4975
rradius 62.4504
rwrist -26.1009
rhand -41.953 64.2205
rfingers 7.12502
rthumb -14.8499 34.7727
lclavicle -7.95139e-016 -1.27222e-014
lhumerus -22.8026 13.4868 75.1586
lradius 87.7999
lwrist 29.9976
lhand -30.5008 10.0128
lfingers 7.12502
lthumb -3.80111 39.9587
rfemur -52.1213 -24.0046 12.5349
rtibia 75.5176
rfoot -23.333 -4.54506
rtoes -48.664
lfemur -64.9284 23.3332 -4.52491
ltibia 83.4329
lfoot -11.6544 -0.00950422
ltoes 6.48181
485
root 21.7692 12.6798 -3.00511 -173.215 -6.09575 -174.001
lowerback 49.1036 0.813642 3.25855
upperback 11.5769 -2.94022 2.18665
thorax -7.39292 -3.64954 2.32669
lowerneck -6.35755 -4.7185 -10.7909
upperneck -30.8211 2.09327 17.1843
head -8.53923 3.18045 7.61666
rclavicle -2.38542e-015 -3.33958e-014
rhumerus 20.9184 -11.815 -84.3715
rradius 62.0534
rwrist -25.9036
rhand -41.7453 64.2437
rfingers 7.12502
rthumb -14.6498 34.7812
lclavicle -2.38542e-015 -3.33958e-014
lhumerus -22.7884 13.6649 75.5415
lradius 87.6062
lwrist 29.8317
lhand -30.2084 9.9907
lfingers 7.12502
lthumb -3.5187 39.9414
rfemur -52.0576 -24.218 12.5303
rtibia 75.5537
rfoot -23.436 -4.05154
rtoes -47.8443
lfemur -64.6908 23.1852 -4.59816
ltibia 83.124
lfoot -11.7497 0.193159
ltoes 3.79126
486
root 21.7913 12.6865 -3.00622 -173.371 -6.21082 -174.209
lowerback 49.5211 0.720967 3.38724
upperback 11.5042 -3.0055 2.0764
thorax -7.53632 -3.68029 2.19568
lowerneck -6.34837 -4.85937 -11.1713
upperneck -31.1623 2.06313 17.3716
head -8.65261 3.24775 7.77425
rclavicle -2.38542e-015 2.34566e-014
rhumerus 20.8033 -11.434 -84.1453
rradius 61.6193
rwrist -25.6491
rhand -41.4909 63.9896
rfingers 7.12502
rthumb -14.4047 34.5095
lclavicle -2.38542e-015 2.34566e-014
lhumerus -22.8695 13.9695 75.9812
lradius 87.4298
lwrist 29.7491
lhand -30.0948 9.96021
lfingers 7.12502
lthumb -3.40899 39.9127
rfemur -51.8422 -24.461 12.3537
rtibia 75.5733
rfoot -23.4361 -4.55861
rtoes -48.7034
lfemur -64.412 23.1371 -4.81164
ltibia 82.8646
lfoot -11.9188 0.404813
ltoes 1.85482
487
root 21.8101 12.6866 -3.00743 -173.384 -6.25411 -174.317
lowerback 49.7003 0.629917 3.54799
upperback 11.4337 -3.02484 1.98466
thorax -7.643 -3.67808 2.04093
lowerneck -6.17716 -5.02666 -11.8081
upperneck -31.5612 2.01686 17.7517
head -8.80855 3.31445 8.06326
rclavicle 3.73715e-014 7.15625e-015
rhumerus 20.6834 -11.0788 -83.9992
rradius 61.1527
rwrist -25.219
rhand -41.3229 63.7343
rfingers 7.12502
rthumb -14.2428 34.2427
lclavicle 3.73715e-014 7.15625e-015
lhumerus -22.9126 14.4282 76.6349
lradius 87.1625
lwrist 29.4228
lhand -30.145 9.73083
lfingers 7.12502
lthumb -3.45751 39.6825
rfemur -51.8177 -24.3942 12.3159
rtibia 75.6369
rfoot -23.3185 -5.39532
rtoes -49.6953
lfemur -64.3513 23.4508 -5.0084
ltibia 82.6329
lfoot -11.8533 0.236096
ltoes 1.64671
488
root 21.8334 12.6837 -3.01161 -172.988 -5.99883 -174.334
lowerback 49.2079 0.748306 3.43872
upperback 11.4613 -2.8956 1.81907
thorax -7.55346 -3.58227 1.83807
lowerneck -6.11932 -5.13722 -11.9374
upperneck -31.7579 1.93602 17.8302
head -8.87309 3.31159 8.12959
rclavicle -1.03368e-014 -2.8625e-014
rhumerus 20.5573 -10.6864 -83.9012
rradius 60.6661
rwrist -25.0368
rhand -41.2438 63.553
rfingers 7.12502
rthumb -14.1666 34.056
lclavicle -1.03368e-014 -2.8625e-014
lhumerus -22.8486 14.8816 77.1645
lradius 86.7951
lwrist 29.0958
lhand -30.3725 9.17111
lfingers 7.12502
lthumb -3.67719 39.1191
rfemur -52.4222 -23.7851 12.541
rtibia 75.8048
rfoot -23.2573 -5.66541
rtoes -49.5539
lfemur -64.6505 24.3587 -5.20993
ltibia 82.3916
lfoot -11.6188 -0.40245
ltoes 2.67256
489
root 21.8542 12.6805 -3.00844 -172.656 -6.01249 -174.398
lowerback 48.9175 0.744006 3.37604
upperback 11.4367 -2.88014 1.71784
thorax -7.54454 -3.54302 1.7411
lowerneck -6.10719 -5.25453 -12.0761
upperneck -32.0251 1.87882 17.8897
head -8.96007 3.33733 8.19218
rclavicle 1.43125e-014 3.97569e-016
rhumerus 20.4313 -10.0354 -83.4285
rradius 60.162
rwrist -25.2823
rhand -41.2553 63.2954
rfingers 7.12502
rthumb -14.1777 33.7992
lclavicle 1.43125e-014 3.97569e-016
lhumerus -22.7355 15.3425 77.6111
lradius 86.4315
lwrist 29.1219
lhand -30.2333 8.64164
lfingers 7.12502
lthumb -3.54274 38.5919
rfemur -52.923 -23.5276 12.673
rtibia 75.997
rfoot -23.2701 -5.75153
rtoes -49.3124
lfemur -64.9776 24.7354 -5.37809
ltibia 82.1426
lfoot -11.321 -1.00126
ltoes 4.32089
490
root 21.8627 12.6839 -3.00752 -172.738 -6.25867 -174.541
lowerback 49.1087 0.600409 3.57236
upperback 11.464 -2.99005 1.6037
thorax -7.54493 -3.59343 1.57717
lowerneck -6.1031 -5.42563 -12.204
upperneck -32.3861 1.80282 18.0211
head -9.07531 3.36707 8.28532
rclavicle 2.94201e-014 1.59028e-014
rhumerus 20.4528 -9.42497 -82.9983
rradius 59.5951
rwrist -25.4438
rhand -41.3878 62.875
rfingers 7.12502
rthumb -14.3053 33.3878
lclavicle 2.94201e-014 1.59028e-014
lhumerus -22.3911 15.7011 78.067
lradius 86.0328
lwrist 29.2279
lhand -29.6821 8.87737
lfingers 7.12502
lthumb -3.01047 38.8359
rfemur -52.7775 -23.5953 12.4182
rtibia 76.1403
rfoot -23.5598 -4.92725
rtoes -47.9536
lfemur -64.8487 24.5673 -5.49706
ltibia 81.9228
lfoot -11.1653 -1.42646
ltoes 6.07748
